<svg width="219" height="222" viewBox="0 0 219 222" fill="none" xmlns="http://www.w3.org/2000/svg">
<g clip-path="url(#clip0_230_1768)">
<path d="M205.312 166.5H177.938V138.75H164.25V166.5H136.875V180.375H164.25V208.125H177.938V180.375H205.312V166.5Z" fill="#215526"/>
<path d="M137.438 208.377H82.6875V41.8774H137.438V83.5024C137.448 87.1789 138.894 90.7016 141.458 93.3013C144.023 95.901 147.498 97.3664 151.125 97.3774H192.188V125.127H205.875V83.5024C205.899 82.5906 205.728 81.6844 205.374 80.846C205.019 80.0077 204.49 79.2572 203.822 78.6461L155.916 30.0836C155.313 29.4061 154.573 28.8692 153.746 28.5099C152.919 28.1506 152.024 27.9774 151.125 28.0024H82.6875C79.0607 28.0133 75.5855 29.4787 73.0209 32.0784C70.4564 34.6781 69.0108 38.2009 69 41.8774V208.377C69.0108 212.054 70.4564 215.577 73.0209 218.176C75.5855 220.776 79.0607 222.241 82.6875 222.252H137.438V208.377ZM151.125 44.6524L189.45 83.5024H151.125V44.6524Z" fill="#215526"/>
</g>
<defs>
<clipPath id="clip0_230_1768">
<rect width="219" height="222" fill="white"/>
</clipPath>
</defs>
</svg>
