<?xml version="1.0" standalone="no"?>
<!DOCTYPE svg PUBLIC "-//W3C//DTD SVG 20010904//EN"
 "http://www.w3.org/TR/2001/REC-SVG-20010904/DTD/svg10.dtd">
<svg version="1.0" xmlns="http://www.w3.org/2000/svg"
 width="50.000000pt" height="50.000000pt" viewBox="0 0 50.000000 50.000000"
 preserveAspectRatio="xMidYMid meet">

<g transform="translate(0.000000,50.000000) scale(0.100000,-0.100000)"
fill="#000000" stroke="none">
<path d="M27 453 c-21 -21 -2 -28 69 -25 63 3 73 6 63 18 -12 14 -119 21 -132
7z"/>
<path d="M24 407 c-2 -7 -3 -91 -2 -187 l3 -175 225 0 225 0 0 185 0 185 -102
3 -103 3 0 -25 c0 -13 -6 -27 -12 -30 -10 -5 -10 -7 -1 -12 17 -7 17 -41 1
-48 -10 -5 -10 -7 -1 -12 20 -9 15 -24 -7 -24 -14 0 -20 7 -20 24 0 13 6 27
13 30 10 5 10 7 0 12 -17 7 -17 41 -1 46 9 3 8 9 -4 21 -21 22 -206 25 -214 4z
m256 -172 c0 -10 -10 -15 -30 -15 -20 0 -30 5 -30 15 0 10 10 15 30 15 20 0
30 -5 30 -15z m-4 -60 c8 -34 -1 -55 -26 -55 -25 0 -34 21 -26 55 9 34 43 34
52 0z"/>
<path d="M240 150 c0 -5 5 -10 10 -10 6 0 10 5 10 10 0 6 -4 10 -10 10 -5 0
-10 -4 -10 -10z"/>
</g>
</svg>
