<?xml version="1.0" standalone="no"?>
<!DOCTYPE svg PUBLIC "-//W3C//DTD SVG 20010904//EN"
 "http://www.w3.org/TR/2001/REC-SVG-20010904/DTD/svg10.dtd">
<svg version="1.0" xmlns="http://www.w3.org/2000/svg"
 width="50.000000pt" height="50.000000pt" viewBox="0 0 50.000000 50.000000"
 preserveAspectRatio="xMidYMid meet">

<g transform="translate(0.000000,50.000000) scale(0.100000,-0.100000)"
fill="#000000" stroke="none">
<path d="M155 456 c-61 -28 -87 -56 -116 -120 -26 -59 -22 -131 10 -195 23
-44 92 -101 123 -101 30 0 21 25 -19 51 -120 78 -122 237 -4 316 86 58 198 34
258 -56 59 -87 33 -200 -60 -260 -40 -26 -49 -51 -19 -51 31 0 100 57 123 101
32 64 36 136 10 195 -12 27 -32 60 -44 73 -33 36 -115 71 -167 71 -26 0 -66
-10 -95 -24z"/>
<path d="M200 315 c-34 -35 -41 -48 -32 -57 9 -9 17 -6 37 12 l24 23 3 -134
c3 -111 6 -134 18 -134 12 0 15 23 18 134 l3 134 24 -23 c20 -18 28 -21 37
-12 9 9 2 22 -32 57 -24 25 -47 45 -50 45 -3 0 -26 -20 -50 -45z"/>
</g>
</svg>
