<svg width="40" height="40" viewBox="0 0 40 40" fill="none" xmlns="http://www.w3.org/2000/svg">
<path d="M32.5 5.3125H28.4375V3.75C28.4375 3.50136 28.3387 3.2629 28.1629 3.08709C27.9871 2.91127 27.7486 2.8125 27.5 2.8125C27.2514 2.8125 27.0129 2.91127 26.8371 3.08709C26.6613 3.2629 26.5625 3.50136 26.5625 3.75V5.3125H13.4375V3.75C13.4375 3.50136 13.3387 3.2629 13.1629 3.08709C12.9871 2.91127 12.7486 2.8125 12.5 2.8125C12.2514 2.8125 12.0129 2.91127 11.8371 3.08709C11.6613 3.2629 11.5625 3.50136 11.5625 3.75V5.3125H7.5C6.91984 5.3125 6.36344 5.54297 5.9532 5.9532C5.54297 6.36344 5.3125 6.91984 5.3125 7.5V32.5C5.3125 33.0802 5.54297 33.6366 5.9532 34.0468C6.36344 34.457 6.91984 34.6875 7.5 34.6875H32.5C33.0802 34.6875 33.6366 34.457 34.0468 34.0468C34.457 33.6366 34.6875 33.0802 34.6875 32.5V7.5C34.6875 6.91984 34.457 6.36344 34.0468 5.9532C33.6366 5.54297 33.0802 5.3125 32.5 5.3125ZM7.5 7.1875H11.5625V8.75C11.5625 8.99864 11.6613 9.2371 11.8371 9.41291C12.0129 9.58873 12.2514 9.6875 12.5 9.6875C12.7486 9.6875 12.9871 9.58873 13.1629 9.41291C13.3387 9.2371 13.4375 8.99864 13.4375 8.75V7.1875H26.5625V8.75C26.5625 8.99864 26.6613 9.2371 26.8371 9.41291C27.0129 9.58873 27.2514 9.6875 27.5 9.6875C27.7486 9.6875 27.9871 9.58873 28.1629 9.41291C28.3387 9.2371 28.4375 8.99864 28.4375 8.75V7.1875H32.5C32.5829 7.1875 32.6624 7.22042 32.721 7.27903C32.7796 7.33763 32.8125 7.41712 32.8125 7.5V12.8125H7.1875V7.5C7.1875 7.41712 7.22042 7.33763 7.27903 7.27903C7.33763 7.22042 7.41712 7.1875 7.5 7.1875ZM32.5 32.8125H7.5C7.41712 32.8125 7.33763 32.7796 7.27903 32.721C7.22042 32.6624 7.1875 32.5829 7.1875 32.5V14.6875H32.8125V32.5C32.8125 32.5829 32.7796 32.6624 32.721 32.721C32.6624 32.7796 32.5829 32.8125 32.5 32.8125Z" fill="black"/>
</svg>
