<svg width="250" height="232" viewBox="0 0 250 232" fill="none" xmlns="http://www.w3.org/2000/svg">
<path d="M53.2188 124.715L111 98.1432V82.4543H104.484C101.25 82.4543 98.1719 81.8452 95.3672 80.736V89.146L37.5781 115.71V136.822H53.2031V124.7L53.2188 124.715ZM207.516 136.844V115.725L149.727 89.146V80.7505C146.845 81.8832 143.747 82.4651 140.617 82.4615H134.109V98.1505L191.883 124.729V136.851H207.508L207.516 136.844ZM130.375 136.844V82.4688H114.75V136.844H130.375ZM217.773 144.094H181.641C177.497 144.094 173.522 145.621 170.592 148.341C167.662 151.06 166.016 154.748 166.016 158.594V192.125C166.016 195.971 167.662 199.659 170.592 202.378C173.522 205.097 177.497 206.625 181.641 206.625H217.773C221.917 206.625 225.892 205.097 228.822 202.378C231.752 199.659 233.398 195.971 233.398 192.125V158.594C233.398 154.748 231.752 151.06 228.822 148.341C225.892 145.621 221.917 144.094 217.773 144.094ZM63.4766 144.094H27.3438C23.1997 144.094 19.2255 145.621 16.2952 148.341C13.3649 151.06 11.7188 154.748 11.7188 158.594V192.125C11.7188 195.971 13.3649 199.659 16.2952 202.378C19.2255 205.097 23.1997 206.625 27.3438 206.625H63.4766C67.6206 206.625 71.5948 205.097 74.5251 202.378C77.4554 199.659 79.1016 195.971 79.1016 192.125V158.594C79.1016 154.748 77.4554 151.06 74.5251 148.341C71.5948 145.621 67.6206 144.094 63.4766 144.094ZM104.492 75.2188H140.625C144.769 75.2188 148.743 73.6911 151.674 70.9718C154.604 68.2525 156.25 64.5644 156.25 60.7188V27.1875C156.25 23.3419 154.604 19.6537 151.674 16.9345C148.743 14.2152 144.769 12.6875 140.625 12.6875H104.492C100.348 12.6875 96.3739 14.2152 93.4436 16.9345C90.5134 19.6537 88.8672 23.3419 88.8672 27.1875V60.7188C88.8672 64.5644 90.5134 68.2525 93.4436 70.9718C96.3739 73.6911 100.348 75.2188 104.492 75.2188ZM140.625 144.094H104.492C100.348 144.094 96.3739 145.621 93.4436 148.341C90.5134 151.06 88.8672 154.748 88.8672 158.594V192.125C88.8672 195.971 90.5134 199.659 93.4436 202.378C96.3739 205.097 100.348 206.625 104.492 206.625H140.625C144.769 206.625 148.743 205.097 151.674 202.378C154.604 199.659 156.25 195.971 156.25 192.125V158.594C156.25 154.748 154.604 151.06 151.674 148.341C148.743 145.621 144.769 144.094 140.625 144.094Z" fill="#215526"/>
</svg>
