<svg width="40" height="40" viewBox="0 0 40 40" fill="none" xmlns="http://www.w3.org/2000/svg">
<path d="M4.4375 19.5001C4.63641 19.6493 4.88644 19.7133 5.13258 19.6782C5.37872 19.643 5.60082 19.5115 5.75 19.3126C6.53593 18.2647 7.55504 17.4142 8.72664 16.8284C9.89823 16.2426 11.1901 15.9376 12.5 15.9376C13.8099 15.9376 15.1018 16.2426 16.2734 16.8284C17.445 17.4142 18.4641 18.2647 19.25 19.3126C19.3994 19.5113 19.6216 19.6425 19.8678 19.6773C20.1139 19.7122 20.3638 19.6479 20.5625 19.4985C20.6335 19.4463 20.6962 19.3836 20.7484 19.3126C21.5344 18.2647 22.5535 17.4142 23.7251 16.8284C24.8967 16.2426 26.1886 15.9376 27.4984 15.9376C28.8083 15.9376 30.1002 16.2426 31.2718 16.8284C32.4434 17.4142 33.4625 18.2647 34.2484 19.3126C34.3978 19.5115 34.6201 19.6429 34.8664 19.6779C35.1127 19.713 35.3628 19.6487 35.5617 19.4993C35.7606 19.3499 35.892 19.1276 35.9271 18.8813C35.9621 18.6351 35.8978 18.3849 35.7484 18.186C34.5682 16.6052 32.9576 15.3977 31.1094 14.7079C32.0945 13.9532 32.8184 12.9088 33.1793 11.7214C33.5402 10.5341 33.52 9.2635 33.1216 8.08822C32.7231 6.91294 31.9664 5.89205 30.9578 5.16901C29.9492 4.44597 28.7394 4.05713 27.4984 4.05713C26.2575 4.05713 25.0477 4.44597 24.0391 5.16901C23.0305 5.89205 22.2738 6.91294 21.8753 8.08822C21.4769 9.2635 21.4567 10.5341 21.8176 11.7214C22.1785 12.9088 22.9024 13.9532 23.8875 14.7079C22.409 15.2588 21.0783 16.1451 20 17.297C18.9213 16.1449 17.59 15.2586 16.1109 14.7079C17.0961 13.9532 17.8199 12.9088 18.1808 11.7214C18.5418 10.5341 18.5216 9.2635 18.1231 8.08822C17.7247 6.91294 16.968 5.89205 15.9594 5.16901C14.9508 4.44597 13.741 4.05713 12.5 4.05713C11.259 4.05713 10.0492 4.44597 9.04062 5.16901C8.03203 5.89205 7.27533 6.91294 6.87688 8.08822C6.47842 9.2635 6.45823 10.5341 6.81915 11.7214C7.18007 12.9088 7.90395 13.9532 8.88906 14.7079C7.04038 15.3978 5.42973 16.6059 4.25 18.1876C4.17613 18.2861 4.12239 18.3982 4.09183 18.5174C4.06128 18.6367 4.05451 18.7608 4.07192 18.8827C4.08933 19.0046 4.13058 19.1218 4.19331 19.2277C4.25603 19.3337 4.33901 19.4262 4.4375 19.5001ZM27.5 5.9376C28.3035 5.9376 29.0889 6.17586 29.757 6.62225C30.4251 7.06865 30.9458 7.70312 31.2533 8.44545C31.5607 9.18777 31.6412 10.0046 31.4844 10.7927C31.3277 11.5807 30.9408 12.3046 30.3726 12.8727C29.8045 13.4409 29.0806 13.8278 28.2926 13.9845C27.5045 14.1413 26.6877 14.0608 25.9453 13.7534C25.203 13.4459 24.5685 12.9252 24.1222 12.2571C23.6758 11.589 23.4375 10.8036 23.4375 10.0001C23.4375 8.92266 23.8655 7.88934 24.6274 7.12748C25.3892 6.36561 26.4226 5.9376 27.5 5.9376ZM12.5 5.9376C13.3035 5.9376 14.0889 6.17586 14.757 6.62225C15.4251 7.06865 15.9458 7.70312 16.2533 8.44545C16.5607 9.18777 16.6412 10.0046 16.4844 10.7927C16.3277 11.5807 15.9408 12.3046 15.3726 12.8727C14.8045 13.4409 14.0806 13.8278 13.2926 13.9845C12.5045 14.1413 11.6877 14.0608 10.9453 13.7534C10.203 13.4459 9.56855 12.9252 9.12215 12.2571C8.67576 11.589 8.4375 10.8036 8.4375 10.0001C8.4375 8.92266 8.86551 7.88934 9.62738 7.12748C10.3892 6.36561 11.4226 5.9376 12.5 5.9376ZM31.1109 30.9579C32.0961 30.2032 32.8199 29.1588 33.1808 27.9714C33.5418 26.7841 33.5216 25.5135 33.1231 24.3382C32.7247 23.1629 31.968 22.142 30.9594 21.419C29.9508 20.696 28.741 20.3071 27.5 20.3071C26.259 20.3071 25.0492 20.696 24.0406 21.419C23.032 22.142 22.2753 23.1629 21.8769 24.3382C21.4784 25.5135 21.4582 26.7841 21.8192 27.9714C22.1801 29.1588 22.9039 30.2032 23.8891 30.9579C22.41 31.5086 21.0787 32.3949 20 33.547C18.9213 32.3949 17.59 31.5086 16.1109 30.9579C17.0961 30.2032 17.8199 29.1588 18.1808 27.9714C18.5418 26.7841 18.5216 25.5135 18.1231 24.3382C17.7247 23.1629 16.968 22.142 15.9594 21.419C14.9508 20.696 13.741 20.3071 12.5 20.3071C11.259 20.3071 10.0492 20.696 9.04062 21.419C8.03203 22.142 7.27533 23.1629 6.87688 24.3382C6.47842 25.5135 6.45823 26.7841 6.81915 27.9714C7.18007 29.1588 7.90395 30.2032 8.88906 30.9579C7.04038 31.6478 5.42973 32.8559 4.25 34.4376C4.17613 34.5361 4.12239 34.6482 4.09183 34.7674C4.06128 34.8867 4.05451 35.0108 4.07192 35.1327C4.08933 35.2546 4.13058 35.3718 4.19331 35.4778C4.25603 35.5837 4.33901 35.6762 4.4375 35.7501C4.53599 35.824 4.64807 35.8777 4.76733 35.9083C4.88659 35.9388 5.01071 35.9456 5.13258 35.9282C5.25446 35.9108 5.37171 35.8695 5.47765 35.8068C5.58359 35.7441 5.67613 35.6611 5.75 35.5626C6.53593 34.5147 7.55504 33.6642 8.72664 33.0784C9.89823 32.4926 11.1901 32.1876 12.5 32.1876C13.8099 32.1876 15.1018 32.4926 16.2734 33.0784C17.445 33.6642 18.4641 34.5147 19.25 35.5626C19.3994 35.7613 19.6216 35.8925 19.8678 35.9273C20.1139 35.9622 20.3638 35.8979 20.5625 35.7485C20.6335 35.6963 20.6962 35.6336 20.7484 35.5626C21.5344 34.5147 22.5535 33.6642 23.7251 33.0784C24.8967 32.4926 26.1886 32.1876 27.4984 32.1876C28.8083 32.1876 30.1002 32.4926 31.2718 33.0784C32.4434 33.6642 33.4625 34.5147 34.2484 35.5626C34.3978 35.7615 34.6201 35.8929 34.8664 35.9279C35.1127 35.963 35.3628 35.8987 35.5617 35.7493C35.7606 35.5999 35.892 35.3776 35.9271 35.1313C35.9621 34.8851 35.8978 34.635 35.7484 34.436C34.5686 32.8555 32.9586 31.648 31.1109 30.9579ZM12.5 22.1876C13.3035 22.1876 14.0889 22.4259 14.757 22.8723C15.4251 23.3186 15.9458 23.9531 16.2533 24.6954C16.5607 25.4378 16.6412 26.2546 16.4844 27.0427C16.3277 27.8307 15.9408 28.5546 15.3726 29.1227C14.8045 29.6909 14.0806 30.0778 13.2926 30.2345C12.5045 30.3913 11.6877 30.3108 10.9453 30.0034C10.203 29.6959 9.56855 29.1752 9.12215 28.5071C8.67576 27.839 8.4375 27.0536 8.4375 26.2501C8.4375 25.1727 8.86551 24.1393 9.62738 23.3775C10.3892 22.6156 11.4226 22.1876 12.5 22.1876ZM27.5 22.1876C28.3035 22.1876 29.0889 22.4259 29.757 22.8723C30.4251 23.3186 30.9458 23.9531 31.2533 24.6954C31.5607 25.4378 31.6412 26.2546 31.4844 27.0427C31.3277 27.8307 30.9408 28.5546 30.3726 29.1227C29.8045 29.6909 29.0806 30.0778 28.2926 30.2345C27.5045 30.3913 26.6877 30.3108 25.9453 30.0034C25.203 29.6959 24.5685 29.1752 24.1222 28.5071C23.6758 27.839 23.4375 27.0536 23.4375 26.2501C23.4375 25.1727 23.8655 24.1393 24.6274 23.3775C25.3892 22.6156 26.4226 22.1876 27.5 22.1876Z" fill="black"/>
</svg>
