<svg width="185" height="185" viewBox="0 0 185 185" fill="none" xmlns="http://www.w3.org/2000/svg">
<g clip-path="url(#clip0_232_1786)">
<rect width="185" height="185" rx="92.5" fill="#C8EFCC"/>
<path d="M92.5 0C74.2053 0 56.3213 5.42503 41.1098 15.5891C25.8982 25.7531 14.0423 40.1996 7.04118 57.1018C0.0400773 74.0039 -1.79173 92.6026 1.7774 110.546C5.34654 128.489 14.1563 144.971 27.0927 157.907C40.029 170.844 56.5109 179.653 74.4542 183.223C92.3974 186.792 110.996 184.96 127.898 177.959C144.8 170.958 159.247 159.102 169.411 143.89C179.575 128.679 185 110.795 185 92.5C184.973 67.9757 175.219 44.4636 157.878 27.1224C140.536 9.78109 117.024 0.0269323 92.5 0ZM37.8048 157.638C43.2947 147.971 51.2487 139.932 60.8566 134.339C70.4644 128.747 81.3829 125.8 92.5 125.8C103.617 125.8 114.536 128.747 124.143 134.339C133.751 139.932 141.705 147.971 147.195 157.638C131.886 170.53 112.514 177.6 92.5 177.6C72.4856 177.6 53.1144 170.53 37.8048 157.638ZM152.782 152.505C143.59 137.137 128.854 125.881 111.611 121.055C119.628 116.791 125.989 109.968 129.682 101.672C133.375 93.3762 134.188 84.0835 131.991 75.2725C129.793 66.4615 124.713 58.6384 117.557 53.0478C110.401 47.4572 101.581 44.4204 92.5 44.4204C83.4192 44.4204 74.5992 47.4572 67.4433 53.0478C60.2874 58.6384 55.2066 66.4615 53.0094 75.2725C50.8122 84.0835 51.6247 93.3762 55.3177 101.672C59.0107 109.968 65.372 116.791 73.3895 121.055C56.1456 125.881 41.4096 137.137 32.2178 152.505C20.3468 140.591 12.272 125.427 9.01303 108.928C5.75407 92.4284 7.45708 75.3333 13.907 59.801C20.357 44.2687 31.2646 30.9959 45.2526 21.6584C59.2407 12.321 75.6818 7.33762 92.5 7.33762C109.318 7.33762 125.759 12.321 139.747 21.6584C153.735 30.9959 164.643 44.2687 171.093 59.801C177.543 75.3333 179.246 92.4284 175.987 108.928C172.728 125.427 164.653 140.591 152.782 152.505ZM92.5 118.4C85.9139 118.4 79.4757 116.447 73.9995 112.788C68.5234 109.129 64.2552 103.928 61.7348 97.8433C59.2144 91.7586 58.555 85.063 59.8399 78.6035C61.1248 72.1439 64.2963 66.2104 68.9534 61.5533C73.6105 56.8962 79.5439 53.7247 86.0035 52.4398C92.4631 51.1549 99.1586 51.8144 105.243 54.3348C111.328 56.8552 116.529 61.1233 120.188 66.5995C123.847 72.0757 125.8 78.5139 125.8 85.1C125.8 93.9317 122.292 102.402 116.047 108.647C109.802 114.892 101.332 118.4 92.5 118.4Z" fill="black"/>
</g>
<defs>
<clipPath id="clip0_232_1786">
<rect width="185" height="185" rx="92.5" fill="white"/>
</clipPath>
</defs>
</svg>
