<svg width="30" height="30" viewBox="0 0 30 30" fill="none" xmlns="http://www.w3.org/2000/svg">
<path d="M30 6.66667V26.6667C30 27.5833 29.6733 28.3683 29.02 29.0217C28.3667 29.675 27.5822 30.0011 26.6667 30H3.33334C2.41667 30 1.63167 29.6733 0.978336 29.02C0.325003 28.3667 -0.00110828 27.5822 2.82966e-06 26.6667V3.33334C2.82966e-06 2.41667 0.32667 1.63167 0.980003 0.978336C1.63334 0.325003 2.41778 -0.00110828 3.33334 2.82966e-06H23.3333L30 6.66667ZM26.6667 8.08334L21.9167 3.33334H3.33334V26.6667H26.6667V8.08334ZM15 25C16.3889 25 17.5694 24.5139 18.5417 23.5417C19.5139 22.5694 20 21.3889 20 20C20 18.6111 19.5139 17.4306 18.5417 16.4583C17.5694 15.4861 16.3889 15 15 15C13.6111 15 12.4306 15.4861 11.4583 16.4583C10.4861 17.4306 10 18.6111 10 20C10 21.3889 10.4861 22.5694 11.4583 23.5417C12.4306 24.5139 13.6111 25 15 25ZM5 11.6667H20V5H5V11.6667ZM3.33334 8.08334V26.6667V3.33334V8.08334Z" fill="#215526"/>
</svg>
